{"title":"Mack Maine ft Lil Wayne and Lucci Lou - Bitch Im From New Orlean","uid":5804695,"size":96937764,"categoryP":"video","categoryS":"music_videos","magnet":"?xt=urn:btih:73594a331b629047603c0642aca2a37031a2e3bb&amp;dn=Mack+Maine+ft+Lil+Wayne+and+Lucci+Lou+-+Bitch+Im+From+New+Orlean&amp;tr=udp%3A%2F%2Ftracker.openbittorrent.com%3A80&amp;tr=udp%3A%2F%2Fopen.demonii.com%3A1337&amp;tr=udp%3A%2F%2Ftracker.coppersurfer.tk%3A6969&amp;tr=udp%3A%2F%2Fexodus.desync.com%3A6969","seeders":0,"leechers":0,"uploader":"KingPinMan","files":4,"time":1283408038,"description":"[img]http://a.imageshack.us/img816/501/mackmaineorleans.png[/img]\n\n[IMG]http://a.imageshack.us/img696/4097/mackmaineorleans2.png[/IMG]\n\n[CODE]General\nComplete name                    : Mack Maine ft Lil Wayne and Lucci Lou - Bitch Im From New Orleans [KingPinVideos].mpg\nFormat                           : MPEG-PS\nFile size                        : 92.4 MiB\nDuration                         : 4mn 31s\nOverall bit rate                 : 2 857 Kbps\nWriting library                  : encoded by TMPGEnc 4.0 XPress Version. 4.7.4.299\n\nVideo\nID                               : 224 (0xE0)\nFormat                           : MPEG VideoFormat version                   : Version 1\nFormat settings, BVOP            : Yes\nFormat settings, Matrix          : Default\nDuration                         : 4mn 31s\nBit rate mode                    : Constant\nBit rate                         : 2 615 Kbps\nNominal bit rate                 : 2 700 Kbps\nWidth                            : 384 pixels\nHeight                           : 208 pixels\nDisplay aspect ratio             : 16:9\nFrame rate                       : 29.970 fps\nResolution                       : 8 bits\nScan type                        : Progressive\n\nBits/(Pixel*Frame)               : 1.093\nStream size                      : 84.6 MiB (92%)\nWriting library                  : TMPGEnc XPress 4.7.4.299\n\nAudio\nID                               : 192 (0xC0)\nFormat                           : MPEG Audio\nFormat version                   : Version 1\nFormat profile                   : Layer 2\nDuration                         : 4mn 31s\nBit rate mode                    : Constant\nBit rate                         : 128 Kbps\nChannel(s)                       : 2 channels\nSampling rate                    : 48.0 KHz\nStream size                      : 4.14 MiB (4%)[/CODE]","torrent":{"xt":"urn:btih:73594a331b629047603c0642aca2a37031a2e3bb","amp;dn":"Mack+Maine+ft+Lil+Wayne+and+Lucci+Lou+-+Bitch+Im+From+New+Orlean","amp;tr":["udp%3A%2F%2Ftracker.openbittorrent.com%3A80","udp%3A%2F%2Fopen.demonii.com%3A1337","udp%3A%2F%2Ftracker.coppersurfer.tk%3A6969","udp%3A%2F%2Fexodus.desync.com%3A6969"],"infoHash":"73594a331b629047603c0642aca2a37031a2e3bb","infoHashBuffer":{"type":"Buffer","data":[115,89,74,51,27,98,144,71,96,60,6,66,172,162,163,112,49,162,227,187]},"announce":[],"urlList":[]}}